<svg xmlns="http://www.w3.org/2000/svg" viewBox="0 0 32 32">
  <rect width="32" height="32" rx="6" fill="#081628"/>
  <path d="M16 6a3 3 0 1 1 0 6 3 3 0 0 1 0-6zm0 4a1 1 0 1 0 0-2 1 1 0 0 0 0 2z" fill="#c8a84b"/>
  <path d="M15 11h2v12h-2z" fill="#c8a84b"/>
  <path d="M9 15h14v2H9z" fill="#c8a84b"/>
  <path d="M9 23c0-2 2-4 4-4h1v2h-1c-1 0-2 .9-2 2s1 2 2 2c1.5 0 2.5-1 3-2.5.5 1.5 1.5 2.5 3 2.5 1 0 2-.9 2-2s-1-2-2-2h-1v-2h1c2 0 4 2 4 4s-1.8 3.5-4 3.5c-1.5 0-2.8-.8-3-2-.2 1.2-1.5 2-3 2C10.8 26.5 9 25 9 23z" fill="#c8a84b"/>
</svg>
